<svg width="768" height="1034" viewBox="0 0 768 1034" fill="none" xmlns="http://www.w3.org/2000/svg">
<path d="M17.5001 1C245.5 1 682.967 1 755.5 137C828.033 273 534.415 398.324 363 473C191.584 547.676 63.4657 569.283 67.0001 673C70.5344 776.717 194.171 777.151 459.246 785.449C504.5 785.449 650.23 807.389 643 921C635.77 1034.61 351 1033 67 1033" stroke="#C2CDD1"/>
<path d="M0 39C227.907 39 665.195 39 737.699 157.605C810.203 276.209 516.704 385.503 345.359 450.627C174.013 515.752 45.9469 534.595 49.4798 625.046C53.0127 715.497 176.599 715.875 441.566 723.111C486.801 723.111 632.472 742.245 625.245 841.325C618.018 940.404 333.364 938.999 49.4798 938.999" stroke="#C2CDD1"/>
<circle cx="155.5" cy="40.5" r="7.5" fill="#C2CDD1"/>
<circle cx="748.5" cy="238.5" r="7.5" fill="#C2CDD1"/>
<circle cx="193.5" cy="540.5" r="7.5" fill="#C2CDD1"/>
<circle cx="308.5" cy="783.5" r="7.5" fill="#C2CDD1"/>
<circle cx="142.5" cy="938.5" r="7.5" fill="#C2CDD1"/>
</svg>
